<?xml version="1.0" encoding="UTF-8"?>
<!-- Uploaded to: SVG Find, www.svgrepo.com, Generator: SVG Find Mixer Tools -->
<svg fill="#000000" width="800px" height="800px" version="1.1" viewBox="144 144 512 512" xmlns="http://www.w3.org/2000/svg">
 <path d="m295.24 211.33c28.773 4.4219 57.934-5.0547 78.609-25.543 8.1914-8.0977 16.988-12.5 26.148-12.5 7.3906 0 14.547 2.8672 21.336 8.2266 1.707 1.3516 3.3906 2.8555 5.0469 4.5156 20.645 20.207 49.613 29.488 78.156 25.027 11.508-1.4805 21.277 0.12109 28.719 5.5273 7.4102 5.3867 11.941 14.117 13.805 25.484 4.6836 28.73 22.711 53.539 48.586 66.871 10.23 5.2891 17.141 12.297 19.973 21.004 2.8281 8.7109 1.3594 18.438-3.8125 28.73-13.098 25.996-13.094 56.66 0.003906 82.656 5.168 10.293 6.6367 20.02 3.8086 28.73-2.832 8.707-9.7383 15.715-19.973 21.004-25.875 13.332-43.902 38.137-48.582 66.871-1.8672 11.367-6.3984 20.098-13.809 25.484-7.4062 5.3789-17.109 6.9922-28.5 5.2539-28.773-4.4219-57.934 5.0547-78.609 25.543-8.1914 8.0977-16.988 12.5-26.148 12.5s-17.957-4.4023-26.148-12.504c-20.676-20.488-49.836-29.961-78.609-25.539-11.391 1.7383-21.094 0.125-28.5-5.2539-7.4102-5.3867-11.941-14.117-13.805-25.484-4.6836-28.73-22.711-53.539-48.586-66.871-10.23-5.2891-17.141-12.297-19.973-21.004-2.8281-8.7109-1.3594-18.438 3.8125-28.73 13.098-25.996 13.094-56.66-0.003906-82.656-5.168-10.293-6.6367-20.02-3.8086-28.73 2.832-8.707 9.7383-15.715 19.973-21.004 25.875-13.332 43.902-38.137 48.582-66.871 1.8672-11.367 6.3984-20.098 13.809-25.484 7.4062-5.3789 17.109-6.9922 28.5-5.2539zm82.121 201.02c-0.75 0.75-1.9648 0.75-2.7148 0-6.9531-6.9531-38.508-38.508-45.457-45.453-0.75-0.75-1.9648-0.75-2.7148 0-5.5078 5.5078-26.152 26.152-31.66 31.66-0.75 0.75-0.75 1.9648 0 2.7148 9.8281 9.8281 70.004 70.004 79.832 79.832 0.75 0.75 1.9648 0.75 2.7148 0 12.973-12.973 114.85-114.84 127.82-127.82 0.75-0.75 0.75-1.9648 0-2.7148-5.5078-5.5078-26.152-26.152-31.66-31.66-0.75-0.75-1.9648-0.75-2.7148 0-10.801 10.797-82.645 82.645-93.445 93.441z" fill-rule="evenodd"/>
</svg>